# xmcd
#
# Track frame offsets:
#	150
#	17677
#	49103
#	89877
#	113820
#	149322
#	183193
#
# Disc length: 3116 seconds
#
# Revision: 1
# Processed by: cddbd v1.5.1PL2 Copyright (c) Steve Scherf et al.
# Submitted via: EasyCDDAExtractor 9.0.0.1
#
DISCID=5b0c2a07
DTITLE=Deep Purple - National Bowl Milton Keyenes 03-06-06 Disc 2
DYEAR=2006
DGENRE=Hard Rock
TTITLE0=When A Blind Man Cries
TTITLE1=Lazy
TTITLE2=Don's Solo and Perfect Strangers
TTITLE3=Space Truckin'
TTITLE4=Highway Star
TTITLE5=Smoke On The Water
TTITLE6=Black Night
EXTD=
EXTT0=
EXTT1=
EXTT2=
EXTT3=
EXTT4=
EXTT5=
EXTT6=
PLAYORDER=
